# xmcd
#
# Track frame offsets:
#	150
#	19662
#	36914
#	54523
#	75958
#	92857
#	109531
#	126703
#	147662
#	165064
#
# Disc length: 2459 seconds
#
# Revision: 2
# Processed by: cddbd v1.5.1PL0 Copyright (c) Steve Scherf et al.
# Submitted via: EasyCDDAExtractor 7.1.3.1
#
DISCID=7b09990a
DTITLE=Dilek Budak - Yine Vurdu Ask
DYEAR=1900
DGENRE=Dance
TTITLE0=Aska yurek gerek
TTITLE1=kara kis
TTITLE2=bip
TTITLE3=sen sen sen
TTITLE4=ah ne zaman
TTITLE5=güller
TTITLE6=ask bir savas
TTITLE7=party
TTITLE8=yine vurdu ask
TTITLE9=elde olan
EXTD=
EXTT0=
EXTT1=
EXTT2=
EXTT3=
EXTT4=
EXTT5=
EXTT6=
EXTT7=
EXTT8=
EXTT9=
PLAYORDER=
